<mxfile host="65bd71144e">
    <diagram id="RvHEX4L_EZqH3y7DUl7f" name="Page-1">
        <mxGraphModel dx="1980" dy="798" grid="1" gridSize="10" guides="1" tooltips="1" connect="1" arrows="1" fold="1" page="1" pageScale="1" pageWidth="850" pageHeight="1100" math="0" shadow="0">
            <root>
                <mxCell id="0"/>
                <mxCell id="1" parent="0"/>
                <mxCell id="33" value="" style="edgeStyle=none;html=1;" edge="1" parent="1" source="2" target="17">
                    <mxGeometry relative="1" as="geometry"/>
                </mxCell>
                <mxCell id="2" value="&lt;u style=&quot;font-size: 15px; background-color: initial;&quot;&gt;&lt;b&gt;Metabolism&lt;/b&gt;&lt;/u&gt;&lt;br&gt;&lt;div style=&quot;font-size: 15px;&quot;&gt;&lt;div align=&quot;left&quot;&gt;&lt;font style=&quot;font-size: 15px;&quot;&gt;&lt;font style=&quot;font-size: 15px;&quot;&gt;&lt;i&gt;Units:&lt;/i&gt; Cal/gram&lt;br&gt;&lt;i&gt;In:&lt;/i&gt;&lt;br&gt;- krats&lt;br&gt;- Pr(other)&lt;br&gt;&lt;i&gt;Out:&lt;/i&gt;&lt;br&gt;- SMR(T_Body)&lt;/font&gt;&lt;font style=&quot;font-size: 15px;&quot;&gt;&lt;br&gt;&lt;/font&gt;&lt;/font&gt;&lt;/div&gt;&lt;/div&gt;" style="rounded=1;whiteSpace=wrap;html=1;" parent="1" vertex="1">
                    <mxGeometry x="300" y="160" width="160" height="180" as="geometry"/>
                </mxCell>
                <mxCell id="22" value="" style="edgeStyle=elbowEdgeStyle;rounded=1;elbow=vertical;html=1;endArrow=classic;endFill=0;" parent="1" source="5" target="21" edge="1">
                    <mxGeometry relative="1" as="geometry"/>
                </mxCell>
                <mxCell id="35" value="" style="edgeStyle=none;html=1;" edge="1" parent="1" source="5" target="34">
                    <mxGeometry relative="1" as="geometry">
                        <Array as="points">
                            <mxPoint x="170" y="435"/>
                        </Array>
                    </mxGeometry>
                </mxCell>
                <mxCell id="5" value="&lt;font style=&quot;font-size: 13px;&quot;&gt;&lt;u style=&quot;font-size: 14px;&quot;&gt;&lt;b&gt;Body Temperature&lt;br&gt;&lt;/b&gt;&lt;/u&gt;&lt;/font&gt;" style="rounded=1;whiteSpace=wrap;html=1;" parent="1" vertex="1">
                    <mxGeometry x="120" y="300" width="100" height="45" as="geometry"/>
                </mxCell>
                <mxCell id="8" value="" style="edgeStyle=elbowEdgeStyle;rounded=1;orthogonalLoop=1;jettySize=auto;html=1;exitDx=0;exitDy=0;elbow=vertical;startArrow=none;exitX=1;exitY=0.5;entryX=0;entryY=0.5;entryDx=0;entryDy=0;" parent="1" source="5" target="2" edge="1">
                    <mxGeometry relative="1" as="geometry">
                        <mxPoint x="530" y="40" as="sourcePoint"/>
                        <mxPoint x="290" y="220" as="targetPoint"/>
                        <Array as="points">
                            <mxPoint x="260" y="250"/>
                            <mxPoint x="270" y="320"/>
                            <mxPoint x="310" y="370"/>
                        </Array>
                    </mxGeometry>
                </mxCell>
                <mxCell id="24" value="" style="edgeStyle=elbowEdgeStyle;rounded=1;elbow=vertical;html=1;endArrow=classic;endFill=1;" parent="1" source="17" target="23" edge="1">
                    <mxGeometry relative="1" as="geometry"/>
                </mxCell>
                <mxCell id="17" value="&lt;div style=&quot;font-size: 15px;&quot; align=&quot;center&quot;&gt;&lt;b&gt;&lt;u&gt;Utility Functions&lt;/u&gt;&lt;/b&gt;&lt;/div&gt;&lt;div style=&quot;font-size: 15px;&quot; align=&quot;left&quot;&gt;- Expected Utility&lt;/div&gt;&lt;div style=&quot;font-size: 15px;&quot; align=&quot;left&quot;&gt;- Choose behavior&lt;/div&gt;&lt;div style=&quot;font-size: 15px;&quot; align=&quot;left&quot;&gt;- Choose microhabitat&amp;nbsp;&lt;/div&gt;&lt;div style=&quot;font-size: 15px;&quot; align=&quot;left&quot;&gt;best suited for behavior&lt;/div&gt;&lt;div&gt;&lt;br&gt;&lt;/div&gt;" style="whiteSpace=wrap;html=1;rounded=1;" parent="1" vertex="1">
                    <mxGeometry x="520" y="180" width="170" height="150" as="geometry"/>
                </mxCell>
                <mxCell id="21" value="&lt;div style=&quot;font-size: 14px;&quot;&gt;&lt;u&gt;&lt;b&gt;Strike&lt;/b&gt;&lt;/u&gt;&lt;/div&gt;&lt;div style=&quot;font-size: 14px;&quot;&gt;&lt;u&gt;&lt;b&gt;Success Probability&lt;/b&gt;&lt;/u&gt;&lt;/div&gt;&lt;div style=&quot;font-size: 14px;&quot; align=&quot;left&quot;&gt;&lt;b&gt;-&amp;nbsp;&lt;/b&gt;Guassian&lt;/div&gt;&lt;div style=&quot;font-size: 14px;&quot; align=&quot;left&quot;&gt;- TPC&lt;/div&gt;" style="whiteSpace=wrap;html=1;rounded=1;" parent="1" vertex="1">
                    <mxGeometry x="-30" y="271.25" width="120" height="102.5" as="geometry"/>
                </mxCell>
                <mxCell id="26" value="" style="edgeStyle=elbowEdgeStyle;rounded=1;elbow=vertical;html=1;endArrow=classic;endFill=1;" parent="1" source="23" target="25" edge="1">
                    <mxGeometry relative="1" as="geometry"/>
                </mxCell>
                <mxCell id="23" value="&lt;b style=&quot;text-decoration-line: underline;&quot;&gt;Behavior&lt;/b&gt;&lt;br&gt;&lt;div style=&quot;&quot;&gt;&lt;span style=&quot;background-color: initial;&quot;&gt;Rest, Forage, Thermoregulate&lt;/span&gt;&lt;/div&gt;" style="whiteSpace=wrap;html=1;rounded=1;" parent="1" vertex="1">
                    <mxGeometry x="545" y="405" width="120" height="60" as="geometry"/>
                </mxCell>
                <mxCell id="28" value="" style="edgeStyle=elbowEdgeStyle;rounded=1;elbow=vertical;html=1;endArrow=classic;endFill=1;entryX=1;entryY=0.5;entryDx=0;entryDy=0;" parent="1" source="25" target="30" edge="1">
                    <mxGeometry relative="1" as="geometry">
                        <mxPoint x="470" y="120" as="targetPoint"/>
                        <Array as="points">
                            <mxPoint x="770" y="120"/>
                            <mxPoint x="720" y="120"/>
                            <mxPoint x="610" y="100"/>
                            <mxPoint x="470" y="120"/>
                        </Array>
                    </mxGeometry>
                </mxCell>
                <mxCell id="25" value="&lt;b&gt;&lt;u&gt;Microhabitat&lt;/u&gt;&lt;/b&gt; &lt;br&gt;(T_env)" style="whiteSpace=wrap;html=1;rounded=1;" parent="1" vertex="1">
                    <mxGeometry x="710" y="405" width="120" height="60" as="geometry"/>
                </mxCell>
                <mxCell id="29" value="" style="edgeStyle=elbowEdgeStyle;rounded=1;orthogonalLoop=1;jettySize=auto;html=1;exitX=0.5;exitY=0;exitDx=0;exitDy=0;entryDx=0;entryDy=0;elbow=vertical;endArrow=none;" parent="1" source="5" edge="1">
                    <mxGeometry relative="1" as="geometry">
                        <mxPoint x="170" y="300" as="sourcePoint"/>
                        <mxPoint x="170" y="301.25" as="targetPoint"/>
                        <Array as="points"/>
                    </mxGeometry>
                </mxCell>
                <mxCell id="32" value="" style="edgeStyle=elbowEdgeStyle;rounded=1;elbow=vertical;html=1;fontSize=14;endArrow=classic;endFill=1;entryX=0.5;entryY=0;entryDx=0;entryDy=0;" parent="1" source="30" target="5" edge="1">
                    <mxGeometry relative="1" as="geometry">
                        <mxPoint x="200" y="100" as="targetPoint"/>
                        <Array as="points">
                            <mxPoint x="390" y="120"/>
                            <mxPoint x="260" y="100"/>
                        </Array>
                    </mxGeometry>
                </mxCell>
                <mxCell id="30" value="&lt;font style=&quot;font-size: 14px;&quot;&gt;&lt;b&gt;&lt;u&gt;Newtons Law of Cooling&lt;/u&gt;&lt;/b&gt;&lt;/font&gt;" style="whiteSpace=wrap;html=1;rounded=1;" parent="1" vertex="1">
                    <mxGeometry x="530" y="90" width="120" height="60" as="geometry"/>
                </mxCell>
                <mxCell id="36" value="" style="edgeStyle=none;html=1;entryX=0;entryY=1;entryDx=0;entryDy=0;" edge="1" parent="1" source="34" target="17">
                    <mxGeometry relative="1" as="geometry"/>
                </mxCell>
                <mxCell id="34" value="&lt;u&gt;&lt;b&gt;Thermal Condition&lt;/b&gt;&lt;/u&gt;&lt;br&gt;Distance from topt" style="whiteSpace=wrap;html=1;rounded=1;" vertex="1" parent="1">
                    <mxGeometry x="320" y="405" width="120" height="60" as="geometry"/>
                </mxCell>
            </root>
        </mxGraphModel>
    </diagram>
</mxfile>